<svg width="374" height="422" viewBox="0 0 374 422" fill="none" xmlns="http://www.w3.org/2000/svg">
<g filter="url(#filter0_d_2322_3579)">
<mask id="path-1-inside-1_2322_3579" fill="white">
<path fill-rule="evenodd" clip-rule="evenodd" d="M64 24C46.3269 24 32 38.3269 32 56V303C32 316.334 40.1553 327.763 51.75 332.572V377.069C51.75 380.28 55.3417 382.182 57.9975 380.378L124.805 335H310C327.673 335 342 320.673 342 303V56C342 38.3269 327.673 24 310 24H64Z"/>
</mask>
<path fill-rule="evenodd" clip-rule="evenodd" d="M64 24C46.3269 24 32 38.3269 32 56V303C32 316.334 40.1553 327.763 51.75 332.572V377.069C51.75 380.28 55.3417 382.182 57.9975 380.378L124.805 335H310C327.673 335 342 320.673 342 303V56C342 38.3269 327.673 24 310 24H64Z" fill="white"/>
<path d="M51.75 332.572H52.75V331.904L52.1331 331.648L51.75 332.572ZM57.9975 380.378L57.4356 379.551L57.4356 379.551L57.9975 380.378ZM124.805 335V334H124.498L124.243 334.173L124.805 335ZM33 56C33 38.8792 46.8792 25 64 25V23C45.7746 23 31 37.7746 31 56H33ZM33 303V56H31V303H33ZM52.1331 331.648C40.8988 326.989 33 315.916 33 303H31C31 316.752 39.4118 328.537 51.3669 333.495L52.1331 331.648ZM52.75 377.069V332.572H50.75V377.069H52.75ZM57.4356 379.551C55.4438 380.904 52.75 379.477 52.75 377.069H50.75C50.75 381.082 55.2397 383.46 58.5594 381.205L57.4356 379.551ZM124.243 334.173L57.4356 379.551L58.5594 381.205L125.367 335.827L124.243 334.173ZM310 334H124.805V336H310V334ZM341 303C341 320.121 327.121 334 310 334V336C328.225 336 343 321.225 343 303H341ZM341 56V303H343V56H341ZM310 25C327.121 25 341 38.8792 341 56H343C343 37.7746 328.225 23 310 23V25ZM64 25H310V23H64V25Z" fill="#009999" mask="url(#path-1-inside-1_2322_3579)"/>
</g>
<defs>
<filter id="filter0_d_2322_3579" x="0" y="0" width="374" height="421.076" filterUnits="userSpaceOnUse" color-interpolation-filters="sRGB">
<feFlood flood-opacity="0" result="BackgroundImageFix"/>
<feColorMatrix in="SourceAlpha" type="matrix" values="0 0 0 0 0 0 0 0 0 0 0 0 0 0 0 0 0 0 127 0" result="hardAlpha"/>
<feOffset dy="8"/>
<feGaussianBlur stdDeviation="16"/>
<feComposite in2="hardAlpha" operator="out"/>
<feColorMatrix type="matrix" values="0 0 0 0 0 0 0 0 0 0.235294 0 0 0 0 0.239216 0 0 0 0.23 0"/>
<feBlend mode="normal" in2="BackgroundImageFix" result="effect1_dropShadow_2322_3579"/>
<feBlend mode="normal" in="SourceGraphic" in2="effect1_dropShadow_2322_3579" result="shape"/>
</filter>
</defs>
</svg>
