<svg width="78" height="78" viewBox="0 0 78 78" fill="none" xmlns="http://www.w3.org/2000/svg">
<path d="M69.4481 9.59186C67.6888 7.57182 65.6 5.96939 63.301 4.8761C61.0019 3.78281 58.5378 3.22009 56.0492 3.22009C53.5606 3.22009 51.0964 3.78281 48.7974 4.8761C46.4983 5.96939 44.4095 7.57182 42.6502 9.59186L38.9991 13.7822L35.3479 9.59186C31.7943 5.51344 26.9746 3.22221 21.949 3.22221C16.9234 3.22221 12.1037 5.51344 8.55003 9.59186C4.99641 13.6703 3 19.2018 3 24.9695C3 30.7373 4.99641 36.2688 8.55003 40.3472L12.2012 44.5376L38.9991 75.2929L65.797 44.5376L69.4481 40.3472C71.2082 38.3282 72.6045 35.9309 73.5571 33.2923C74.5097 30.6537 75 27.8256 75 24.9695C75 22.1135 74.5097 19.2853 73.5571 16.6468C72.6045 14.0082 71.2082 11.6109 69.4481 9.59186V9.59186Z" fill="#F2F2F2" stroke="#2AA39C" stroke-width="5" stroke-linecap="round" stroke-linejoin="round"/>
</svg>
