<svg width="414" height="86" viewBox="0 0 414 86" fill="none" xmlns="http://www.w3.org/2000/svg">
<path fill-rule="evenodd" clip-rule="evenodd" d="M0 6.62209L17 4.59856C35 2.57503 69 -1.47203 104 0.551498C138 2.57503 173 11.6809 207 19.775C242 27.8691 276 35.9633 311 35.9633C345 35.9633 380 27.8691 397 23.8221L414 19.775V86H397C380 86 345 86 311 86C276 86 242 86 207 86C173 86 138 86 104 86C69 86 35 86 17 86H0L0 6.62209Z" fill="#009999"/>
<path fill-rule="evenodd" clip-rule="evenodd" d="M414 9.95449L397 6.91267C379 3.87085 345 -2.2128 310 0.829025C276 3.87085 241 17.559 207 29.7263C172 41.8936 138 54.0609 103 54.0609C69 54.0609 34 41.8936 17 35.81L0 29.7263V86H17C34 86 69 86 103 86C138 86 172 86 207 86C241 86 276 86 310 86C345 86 379 86 397 86H414V9.95449Z" fill="#EBFFFF"/>
</svg>
